<svg width="397" height="311" viewBox="0 0 397 311" fill="none" xmlns="http://www.w3.org/2000/svg">
<path d="M169.52 79.1446L178.955 65.7477C194.854 76.2254 209.085 87.1723 221.439 97.65L235.827 86.5989C224.359 72.4722 210.284 57.9285 193.447 45.2093L200.484 35.1486L196.574 33.0635L203.56 23.4198L167.904 5.64417L161.545 14.1932L157.27 11.8995L150.963 20.4485C86.1154 -7.49207 19.1309 1.31755 19.1309 1.31755C19.1309 1.31755 74.178 10.1793 135.845 40.8827L128.443 50.8912L132.249 53.4976L0 231.202V263.26H110.928V306.527H157.426V263.26H190.945V224.425H157.426V122.88L112.388 187.31V224.425H57.0801L165.141 76.1211L169.52 79.0924V79.1446Z" fill="#3978D5"/>
<path d="M309.275 275.094C285.713 275.094 271.013 263.625 271.013 245.381C271.013 227.136 285.765 215.928 309.275 215.928C332.785 215.928 348.11 227.136 348.11 245.381C348.11 263.625 333.097 275.094 309.275 275.094ZM364.895 198.309C380.221 188.874 389.031 174.487 389.031 155.929C389.031 119.7 356.659 97.0767 309.275 97.0767C289.049 97.0767 271.534 101.351 258.137 109.066C264.862 118.918 272.785 131.22 280.709 145.347C285.609 136.902 295.826 132.055 309.275 132.055C328.719 132.055 341.646 141.75 341.646 157.962C341.646 174.174 328.979 183.296 309.275 183.296C289.571 183.296 277.477 173.6 277.477 157.962C277.477 155.564 277.79 153.323 278.311 151.238C269.189 142.689 255.948 130.386 244.376 119.7C235.253 129.24 230.093 141.49 230.093 155.929C230.093 174.487 238.642 188.874 253.915 198.309C234.211 208.318 222.69 224.79 222.69 246.84C222.69 285.676 257.095 310.124 309.223 310.124C361.351 310.124 396.329 285.676 396.329 246.84C396.329 224.738 384.86 208.266 364.843 198.309H364.895Z" fill="#3978D5"/>
</svg>
